<svg xmlns="http://www.w3.org/2000/svg" height="800" width="1200" viewBox="-21.667005 -9.6623 187.78071 57.9738" style="background-color: #6c6d70"><path d="M.005 19.3246a18.89 18.89 0 1137.77 0m37.77 0a18.89 18.89 0 11-37.77 0m40.83-18.31h3v2.8a8.17 8.17 0 013-2.58 7.86 7.86 0 013.46-.8 5.86 5.86 0 014.62 1.7 7.32 7.32 0 011.5 5v12.18h-3.08v-11.58a5.46 5.46 0 00-.92-3.59 3.59 3.59 0 00-2.83-1 6.08 6.08 0 00-2 .35 5 5 0 00-1.82 1.13 5.9 5.9 0 00-1.39 1.61 4.79 4.79 0 00-.46 2.2v10.88h-3.08zm19.62 0h3.08v11.54a6 6 0 00.83 3.61 3.23 3.23 0 002.71 1.06 5.45 5.45 0 003.72-1.49 5.91 5.91 0 001.35-1.65 4.79 4.79 0 00.46-2.25v-10.82h3.08v18.3h-3v-2.83a8.92 8.92 0 01-2.9 2.58 7.16 7.16 0 01-3.36.81c-2.08 0-3.583-.56-4.51-1.68a7.75 7.75 0 01-1.4-5zm19.48 0h3v2.83a7.54 7.54 0 012.41-2.34 5.69 5.69 0 012.94-.81 8.07 8.07 0 011.63.14l-.39 2.87-.71-.12a5.06 5.06 0 00-.78-.06 5.38 5.38 0 00-1.74.3 4.76 4.76 0 00-1.67 1 5 5 0 00-1.17 1.61 4.54 4.54 0 00-.44 2v10.88h-3.08zm23.69 9.13l-2.94.11a17.12 17.12 0 00-3.12.35 6 6 0 00-2 .76 2.67 2.67 0 00-1 1.19 4.14 4.14 0 00-.3 1.63 3 3 0 00.83 2.21 3.77 3.77 0 002.74.83 6.2 6.2 0 004.25-1.34 4.66 4.66 0 001.52-3.68zm.07 6.66a9 9 0 01-2.51 2.07 7.58 7.58 0 01-3.79.87 9 9 0 01-2.53-.34 5.44 5.44 0 01-2-1 4.67 4.67 0 01-1.29-1.72 5.83 5.83 0 01-.46-2.41 5.3 5.3 0 01.8-3 5.55 5.55 0 012.12-1.84 10.52 10.52 0 013-1 27.39 27.39 0 013.43-.35l3.15-.1v-.74a4.74 4.74 0 00-1-3.36 4.33 4.33 0 00-3.22-1 5.66 5.66 0 00-3.22.73 3.36 3.36 0 00-1.35 2l-2.8-.32a5.24 5.24 0 012.37-3.66 9.7 9.7 0 015.13-1.2 10.18 10.18 0 013.35.48 5.55 5.55 0 012.21 1.36 5.13 5.13 0 011.22 2.16c.264.978.388 1.988.37 3v11.9h-3z" fill="#FFF"/></svg>